<?xml version="1.0" standalone="no"?>
<!DOCTYPE svg PUBLIC "-//W3C//DTD SVG 20010904//EN"
 "http://www.w3.org/TR/2001/REC-SVG-20010904/DTD/svg10.dtd">
<svg version="1.0" xmlns="http://www.w3.org/2000/svg"
 width="512.000000pt" height="512.000000pt" viewBox="0 0 512.000000 512.000000"
 preserveAspectRatio="xMidYMid meet">
<metadata>
Created by potrace 1.14, written by Peter Selinger 2001-2017
</metadata>
<g transform="translate(0.000000,512.000000) scale(0.100000,-0.100000)"
fill="#000000" stroke="none">
<path d="M2287 4564 c-261 -258 -313 -297 -469 -351 -126 -44 -202 -52 -512
-53 -300 -1 -324 -4 -340 -46 -3 -8 -6 -146 -6 -308 -1 -322 -11 -406 -64
-536 -58 -141 -99 -195 -344 -443 -234 -237 -235 -237 -229 -274 5 -31 39 -69
230 -262 270 -273 319 -344 378 -543 20 -67 22 -101 26 -393 2 -200 8 -331 15
-348 6 -16 21 -33 34 -37 13 -5 153 -10 311 -11 316 -1 368 -6 490 -48 165
-57 216 -94 473 -348 139 -137 247 -234 262 -238 16 -4 37 -1 54 9 16 8 117
103 224 211 107 108 218 214 245 234 113 84 264 149 395 170 36 6 194 11 352
11 158 0 295 3 303 6 40 16 44 50 46 356 1 326 5 361 52 497 54 154 93 207
350 467 256 261 262 270 218 325 l-19 24 -504 3 c-276 1 -513 0 -525 -3 -34
-8 -50 -51 -57 -151 -8 -104 -8 -104 -31 -200 -98 -391 -418 -713 -805 -808
-110 -27 -121 -28 -255 -31 -152 -3 -251 12 -380 56 -391 135 -667 456 -750
874 -14 70 -14 282 1 369 26 157 91 319 185 457 54 80 183 210 269 271 111 79
296 162 406 182 16 3 54 9 84 15 52 9 302 7 346 -2 89 -21 167 -43 209 -59
315 -122 550 -365 664 -687 35 -97 53 -121 93 -121 40 0 63 14 77 48 24 57
-65 275 -180 442 -175 253 -435 434 -734 509 -131 33 -192 40 -350 36 -119 -3
-171 -8 -251 -29 -183 -46 -314 -105 -451 -202 -270 -194 -446 -463 -518 -789
-29 -129 -28 -365 1 -502 28 -134 69 -249 128 -356 191 -351 541 -599 931
-661 88 -14 324 -15 390 -2 170 35 269 67 380 124 342 177 589 499 671 877 3
11 10 57 16 103 l12 82 345 0 345 0 -135 -137 c-150 -153 -188 -198 -244 -292
-42 -71 -96 -201 -114 -276 -6 -28 -14 -61 -18 -75 -3 -14 -8 -149 -10 -300
-3 -151 -6 -276 -7 -277 -1 -1 -112 -3 -247 -4 -257 -1 -348 -11 -468 -50 -99
-33 -167 -66 -256 -123 -94 -61 -67 -38 -288 -255 l-177 -175 -188 186 c-245
243 -368 323 -582 383 -96 26 -101 27 -395 32 -148 3 -271 5 -271 6 -1 1 -4
126 -7 277 -2 151 -8 289 -11 305 -25 115 -71 240 -119 325 -57 101 -109 164
-286 343 -97 98 -176 182 -176 187 0 5 79 89 175 187 186 190 215 223 273 318
53 90 108 225 122 304 2 14 9 49 14 76 5 28 10 162 11 299 0 138 2 251 3 252
2 2 117 4 257 5 283 2 378 14 513 68 178 71 252 125 484 354 101 100 185 179
187 176 399 -396 460 -446 639 -519 82 -33 114 -43 222 -66 17 -4 152 -9 300
-11 149 -3 271 -6 272 -7 1 -1 3 -112 3 -247 1 -256 11 -347 50 -469 48 -147
136 -294 247 -409 57 -60 74 -71 101 -71 43 0 82 38 82 80 0 24 -15 46 -68
103 -116 125 -183 243 -224 396 -19 67 -22 111 -25 381 -2 168 -6 320 -9 338
-9 59 -16 60 -374 65 -357 4 -399 10 -543 75 -119 54 -179 103 -408 329 -193
191 -231 225 -262 230 -37 6 -37 5 -280 -233z"/>
</g>
</svg>
