<svg height="80.603" viewBox="0 0 242.866 80.603" width="242.866" xmlns="http://www.w3.org/2000/svg"><g fill="#fff" transform="translate(-27.284 129.402)"><path d="m47.907-109.828-.019.023a.326.326 0 0 0 -.056.043 4.269 4.269 0 0 1 -2.765 1.014h-.04a4.268 4.268 0 0 1 -4.247-3.752c.006-.082.016-.157.023-.236s-.01-.186-.01-.281a4.275 4.275 0 0 1 4.273-4.277 4.275 4.275 0 0 1 4.273 4.277 4.261 4.261 0 0 1 -1.433 3.194zm10.481-3.786-.873-1.083.412-1.2a2.542 2.542 0 0 0 -.255-.514 6.32 6.32 0 0 0 -.6-.57c-.534.118-1.142.21-1.718.393-1.574.5-3.134 1.047-4.7 1.577-.3.1-.612.239-.772-.252.059-.082.108-.223.206-.281 1.067-.639 2.146-1.254 3.206-1.9a8.851 8.851 0 0 0 2.736-1.865c-.16-.481-.3-.9-.429-1.276-.419-.2-.775-.37-1.178-.559.108-1.263-.566-1.8-1.725-1.728l-.481-1.2h-1.584c-1.348 2.012-1.862 4.381-3.3 6.318l-.739-.461c.206-2.4 1.537-4.5 1.6-6.9-.367-.331-.687-.625-1.025-.933-.455.242-.847.445-1.2.635l-1.342-.942c-.425.366-.785.674-1.09.936-.523-.2-1.014-.377-1.492-.553-.318.245-.56.429-.883.671.252 2.516 1.7 4.672 2.1 7.192-.242.115-.51.245-.841.4-1.571-1.78-2.182-4.127-3.661-5.818-1.459-.1-1.577-.019-1.915 1.175l-1.433.559c-.095.523-.167.909-.209 1.145l-1.6.958c.2.5.35.867.487 1.208.543.327 1.021.664 1.537.919 1.28.628 2.585 1.2 3.855 1.849.272.137.448.471.642.684a.943.943 0 0 1 -1.267.432c-1.24-.357-2.477-.717-3.72-1.051-.763-.2-1.538-.356-2.205-.507-1.051.965-1.051.965-.4 2.248-.252.455-.5.906-.73 1.315.327.429.566.746.782 1.028-.409 1.7-.406 1.7.727 2.477 2.065-.733 4.192-1.485 6.286-2.228.261.347.425.556.576.775a2.053 2.053 0 0 1 .137.36c-1.777 1.521-4.156 2.136-6.017 3.6v1.5l1.4.7c.163.406.307.763.445 1.106.54.056.975.1 1.391.141.167.422.308.785.475 1.2h1.567a7.35 7.35 0 0 0 .556-.834c.694-1.4 1.355-2.821 2.051-4.221a10.158 10.158 0 0 1 .667-1.011c.311.18.53.3.789.451a64.961 64.961 0 0 0 -1.777 6.918c.383.3.727.563 1.106.857.481-.275.933-.53 1.3-.74l1.292.834 1.116-1.015a1.631 1.631 0 0 0 1.891.219c.141-.323.331-.762.468-1.08-.435-1.155-.831-2.149-1.181-3.157-.36-1.031-.675-2.078-1.038-3.2.9-.206 1.165.307 1.45.811.919 1.633 1.845 3.259 2.748 4.853a1.641 1.641 0 0 0 1.9.134c.125-.478.268-1.014.409-1.561.449-.062.92-.131 1.414-.2.118-.517.216-.939.3-1.318.419-.16.779-.3 1.171-.452v-1.654c-.468-.272-.939-.579-1.44-.831-1.551-.789-3.108-1.554-4.682-2.333.056-.426.095-.714.147-1.113 1.2.353 2.3.7 3.409 1 1.158.311 2.333.579 3.58.883.314-.331.641-.678 1-1.063l-.671-1.391c.285-.507.543-.962.828-1.469"/><path d="m58.311-92.6a38.647 38.647 0 0 1 -3.616 5.72c-7.327 9.679-18.93 16-24.286 26.894a9.554 9.554 0 0 0 -.533 1.233l-.354.995a15.426 15.426 0 0 0 -.9 5.016l-.043 3.94a24.211 24.211 0 0 1 1.247-15.363 31.132 31.132 0 0 1 9.515-12.254c5.334-4.2 10.523-8.7 14.535-14.175s6.814-12.023 6.824-18.806a23.828 23.828 0 0 0 -2.688-11.155 14.2 14.2 0 0 0 -9.459-7.277 15.57 15.57 0 0 0 -8.991.749 15.638 15.638 0 0 0 -8.815 20.283 15.624 15.624 0 0 0 11.161 9.54 16.187 16.187 0 0 1 -13.494-10.18 16.189 16.189 0 0 1 9.126-20.99 15.22 15.22 0 0 1 7.284-.862 18.868 18.868 0 0 1 10.194 4.523 14.519 14.519 0 0 1 1.683 1.694 22.262 22.262 0 0 1 5.289 11.248 31.722 31.722 0 0 1 -3.679 19.227"/><path d="m48.581-113.014a3.491 3.491 0 0 1 -3.491 3.492 3.491 3.491 0 0 1 -3.492-3.492 3.491 3.491 0 0 1 3.492-3.491 3.491 3.491 0 0 1 3.491 3.491"/><path d="m87.568-97.037c2.8-.051 5.607-.059 8.409 0a5.665 5.665 0 0 0 3.9-1.139c.457-.744.941-1.537.377-2.468a1.645 1.645 0 0 0 -.416-.134c-4.048-.013-8.1-.119-12.145.018a10.45 10.45 0 0 0 -5.948 1.839 11 11 0 0 0 -4.06 5.587v2.24c.3.856.572 1.725.912 2.566.97 2.394 3.079 3.463 5.264 4.422a7.6 7.6 0 0 0 1.92.576c.845.052 1.693.072 2.534.163a25.106 25.106 0 0 1 3.848.525 6.744 6.744 0 0 1 4.212 3.39 4.026 4.026 0 0 1 -1.065 4.733 7.654 7.654 0 0 1 -5.865 2.3c-2.3-.059-4.606.035-6.906-.026a7.07 7.07 0 0 0 -4.855 1.515v1.867l14.2.029a6.058 6.058 0 0 0 3.5-1.1c.716-.49 1.434-.984 2.1-1.541a7.624 7.624 0 0 0 2.955-6.7 9.593 9.593 0 0 0 -7.585-8.182 17.36 17.36 0 0 0 -4.618-.4c-2.891.168-4.822-1.337-6.52-3.337a2.5 2.5 0 0 1 -.235-3.123 6.976 6.976 0 0 1 6.083-3.628"/><path d="m219.347-79.332a6.288 6.288 0 0 1 -5.212 6.51 16.141 16.141 0 0 1 -3.124.355c-2.295.052-4.592.016-7.179.016-.059-.888-.129-1.489-.131-2.09-.009-5.037.011-10.075-.016-15.113a9.265 9.265 0 0 1 1.069-4.579 5.222 5.222 0 0 1 4.377-2.767c3.291-.144 6.592-.04 10.039-.04a12.505 12.505 0 0 1 .181 1.473c.011 5.411.023 10.822 0 16.233zm-9.747-21.457a10.433 10.433 0 0 0 -5.615 1.77 6.789 6.789 0 0 0 -1.971 1.669 11.291 11.291 0 0 0 -2.084 6.264q-.024 10.36 0 20.72a8.9 8.9 0 0 0 .224 1.343h1.946c3.177 0 6.357-.081 9.531.024a12.3 12.3 0 0 0 7.9-2.123c.965 1.924 1.8 2.326 3.517 1.729v-31.29c-.509-.059-.812-.123-1.115-.124-4.111-.006-8.224-.056-12.333.018"/><path d="m130.008-79.131a6.086 6.086 0 0 1 -4.992 6.277 17.533 17.533 0 0 1 -3.305.387c-1.74.062-3.483.025-5.225.012-.6 0-1.209-.061-1.96-.1-.066-.673-.161-1.208-.163-1.743-.011-4.97-.049-9.942.02-14.911a11.276 11.276 0 0 1 .628-4.178 5.593 5.593 0 0 1 5.01-3.613c3.223-.137 6.456-.034 9.879-.034.053.657.116 1.08.117 1.5 0 5.467.014 10.934-.008 16.4zm-9.5-21.672a10.19 10.19 0 0 0 -5.319 1.474 7.805 7.805 0 0 0 -3.689 4.29 19.4 19.4 0 0 0 -.875 5.092c-.1 6.462-.044 12.928-.033 19.391a12.464 12.464 0 0 0 .175 1.456c.633.03 1.126.073 1.619.074 3.92 0 7.841-.032 11.761.011a8.378 8.378 0 0 0 4.108-1.011l1.992-1.059.828 1.4c.859.495 1.658.979 2.726.294v-31.26a14.736 14.736 0 0 0 -1.531-.154c-3.92-.013-7.841-.024-11.761 0"/><path d="m253.355-98.075a10.61 10.61 0 0 0 -5.884-2.456 14.8 14.8 0 0 0 -10.352 1.745l-.956-1.358-2.408-.737a11.954 11.954 0 0 0 -.207 1.456q-.014 13.711.016 27.421a10.226 10.226 0 0 0 .444 2.153 2.894 2.894 0 0 0 2.952.577v-2.036c0-6.032-.037-12.064.031-18.094a12.431 12.431 0 0 1 .669-3.806 5.178 5.178 0 0 1 3.58-3.458 13.845 13.845 0 0 1 5.548-.311c2.065.242 3.991.953 5.052 3.021a7.621 7.621 0 0 1 .795 3.573q-.006 8.3 0 16.6a7.492 7.492 0 0 0 1.02 4.053c.833.54 1.627 1 2.563.475a1.568 1.568 0 0 0 .144-.414c.013-7.274.092-14.55-.013-21.822a8.778 8.778 0 0 0 -2.992-6.584"/><path d="m162.91-98.95a11.472 11.472 0 0 0 -6.723-1.8c-2.892 0-5.843.173-8.292 2.018l-1.013-1.555-2.553-.5c-.051.712-.121 1.254-.123 1.8-.007 8.772.009 17.545-.02 26.317a4.86 4.86 0 0 0 .987 3.1 2.232 2.232 0 0 0 2.449.28v-1.993c0-5.848-.044-11.7.032-17.545a17.1 17.1 0 0 1 .692-4.187 5.123 5.123 0 0 1 3.643-3.667 12.988 12.988 0 0 1 6.453-.134 5.821 5.821 0 0 1 4.892 6.287c-.165 4.473-.063 8.958-.027 13.437.016 2.1.148 4.2.211 5.844.916 1.661 1.749 2.56 3.416 2.044a7.31 7.31 0 0 0 .119-.923c0-7.155.068-14.311-.036-21.464a8.86 8.86 0 0 0 -4.107-7.353"/><path d="m189.476-72.446c-.616 0-1.3.025-1.979 0a6.477 6.477 0 0 1 -6.068-4.894 17.7 17.7 0 0 1 -.507-3.663c-.057-4.848-.028-9.7-.016-14.547a14.184 14.184 0 0 1 .171-1.51h1.991c1.992 0 3.984.016 5.975-.013a8.151 8.151 0 0 0 1.411-.275c-.165-.792-.289-1.387-.4-1.918a5.022 5.022 0 0 0 -3.941-1.555c-1.243.059-2.491.029-3.735 0a10.789 10.789 0 0 1 -1.441-.252v-12.292a3.706 3.706 0 0 0 -3.337-1.935c-.047.648-.115 1.188-.119 1.728-.015 1.865-.005 3.73-.005 5.6q0 14.641.007 29.282a9.072 9.072 0 0 0 3.192 7.239c3.06 2.541 6.76 2.734 10.56 2.286.243-1.61-.655-2.426-1.76-3.272"/><path d="m266.925-100.684v29.8c1.227 1.922 1.369 2 3.225 1.563v-29.75c-.8-1.01-1.605-1.839-3.225-1.609"/><path d="m266.925-115.267v5.04c1.227 1.922 1.369 2 3.225 1.563v-4.993c-.8-1.01-1.605-1.839-3.225-1.61"/></g></svg>